<svg xmlns="http://www.w3.org/2000/svg" viewBox="0 0 16 16">
  <defs>
    <style>.canvas{fill: none; opacity: 0;}.light-lightblue-10{fill: black; opacity: 0.1;}.light-lightblue{fill: #FFB347; opacity: 1;}</style>
  </defs>
  <title>IconLightDatabase</title>
  <g id="canvas" class="canvas">
    <path class="canvas" d="M16,16H0V0H16Z" />
  </g>
  <g id="level-1">
    <path class="light-lightblue-10" d="M8,1.5c-2.164,0-4.5.574-4.5,1.5v9c0,.827,2.019,1.5,4.5,1.5s4.5-.673,4.5-1.5V3C12.5,2.074,10.164,1.5,8,1.5Z" />
    <path class="light-lightblue" d="M13,3v9c0,1.374-2.592,2-5,2s-5-.626-5-2V3c0,.53.388.948,1,1.262V12c0,.233,1.247,1,4,1s4-.767,4-1V4.262C12.612,3.948,13,3.53,13,3Zm0,0c0-1.374-2.592-2-5-2S3,1.626,3,3,5.592,5,8,5,13,4.374,13,3ZM12,3c0,.257-1.375,1-4,1S4,3.257,4,3,5.375,2,8,2,12,2.743,12,3Z" />
  </g>
</svg>
