<?xml version="1.0" encoding="utf-8"?>
<!-- Uploaded to: SVG Repo, www.svgrepo.com, Generator: SVG Repo Mixer Tools -->
<svg fill="#000000" width="800px" height="800px" viewBox="0 0 32 32" version="1.1" xmlns="http://www.w3.org/2000/svg">
<title>console</title>
<path d="M0 26.016v-20q0-2.496 1.76-4.256t4.256-1.76h20q2.464 0 4.224 1.76t1.76 4.256v20q0 2.496-1.76 4.224t-4.224 1.76h-20q-2.496 0-4.256-1.76t-1.76-4.224zM4 26.016q0 0.832 0.576 1.408t1.44 0.576h20q0.8 0 1.408-0.576t0.576-1.408v-20q0-0.832-0.576-1.408t-1.408-0.608h-20q-0.832 0-1.44 0.608t-0.576 1.408v20zM8 18.016h2.016v-2.016h-2.016v2.016zM8 10.016h2.016v-2.016h-2.016v2.016zM10.016 16h1.984v-1.984h-1.984v1.984zM10.016 12h1.984v-1.984h-1.984v1.984zM12 14.016h2.016v-2.016h-2.016v2.016zM14.016 18.016h5.984v-2.016h-5.984v2.016z"></path>
</svg>