<svg xmlns="http://www.w3.org/2000/svg" viewBox="0 0 16 16">
  <defs>
    <style>.canvas{fill: none; opacity: 0;}.light-defaultgrey-10{fill: #212121; opacity: 0.1;}.light-defaultgrey{fill: #212121; opacity: 1;}.light-shadow{fill: #000000; opacity: 0.1;}.cls-1{opacity:0.75;}.cls-2{opacity:0.25;}</style>
  </defs>
  <title>IconLightFolderOpenedNoColor</title>
  <g id="canvas" class="canvas">
    <path class="canvas" d="M16,16H0V0H16Z" />
  </g>
  <g id="level-2">
    <g class="cls-1">
      <path class="light-defaultgrey-10" d="M13.5,3.5V6h-5l-.354.146L7.293,7H2.5l-.475.342L.5,11.918V2.5h5l1,1Z" />
      <path class="light-defaultgrey" d="M14,3.5V6H13V4H6.5l-.354-.146L5.293,3H1v7.418L.025,13.342.5,14,0,13.5V2.5L.5,2h5l.354.146L6.707,3H13.5Z" />
    </g>
    <g class="cls-2">
      <path class="light-defaultgrey-10" d="M13.5,6v7.5H.5V11.918L2.025,7.342,2.5,7H7.293l.853-.854L8.5,6Z" />
      <path class="light-defaultgrey" d="M14,6v7.5l-.5.5H.5l-.475-.658L1,10.418V13H13V6Z" />
    </g>
  </g>
  <g id="level-1">
    <path class="light-shadow" d="M15.332,5H8.5l-.354.146L7.293,6H2.425l-.488.387-1.849,8L.575,15H13.668l.491-.409,1.664-9Zm-2.08,9H1.2L2.822,7H7.5l.354-.146L8.707,6h6.024Z" />
    <path class="light-defaultgrey-10" d="M15.433,6.5l-1.866,7H.5l2-6h5l1-1Z" />
    <path class="light-defaultgrey" d="M15.434,6H8.5l-.354.146L7.293,7H2.5l-.475.342-2,6L.5,14H13.566l.484-.371,1.867-7Zm-2.251,7H1.193L2.86,8H7.5l.354-.146L8.707,7h6.076Z" />
  </g>
</svg>
